<svg width="15" height="15" viewBox="0 0 15 15" fill="none" xmlns="http://www.w3.org/2000/svg">
<g clip-path="url(#clip0)">
<path d="M12.6896 1.96606L5.89729 8.7584C5.71421 8.94147 5.41737 8.94147 5.2343 8.7584L2.31038 5.83448L0 8.14486L4.41056 12.5555C4.71694 12.8619 5.13249 13.034 5.56576 13.034C5.999 13.034 6.41458 12.8618 6.72094 12.5555L15 4.27642L12.6896 1.96606Z" fill="#E6E6E6" stroke="white" stroke-width="0.5"/>
<g opacity="0.1">
<path opacity="0.1" d="M14.2359 3.51233L5.49576 12.2525C5.25395 12.4943 4.94987 12.6592 4.62134 12.7327C4.89564 12.9271 5.22509 13.0339 5.56572 13.0339C5.99896 13.0339 6.41454 12.8618 6.7209 12.5554L15 4.27633L14.2359 3.51233Z" fill="#5A5A5A"/>
</g>
</g>
<defs>
<clipPath id="clip0">
<rect width="15" height="15" fill="white"/>
</clipPath>
</defs>
</svg>
