<svg width="12" height="12" viewBox="0 0 12 12" fill="none" xmlns="http://www.w3.org/2000/svg">
<path d="M7.32174 4.67731C7.1796 4.53432 7.02198 4.40757 6.85183 4.29938C6.40117 4.0108 5.87724 3.85745 5.3421 3.85745C4.59933 3.85607 3.88675 4.15119 3.36245 4.67731L0.818911 7.22284C0.295505 7.74725 0.00132374 8.45777 0.000855072 9.19869C-0.000129126 10.7448 1.25243 11.999 2.79856 12C3.54017 12.0025 4.2521 11.7088 4.77621 11.1841L6.87583 9.0845C6.91398 9.04667 6.93528 8.99507 6.93498 8.94137C6.93434 8.83092 6.84429 8.74193 6.73385 8.74256H6.65387C6.2152 8.7441 5.78044 8.65986 5.37411 8.49461C5.29924 8.4638 5.21319 8.48118 5.15616 8.5386L3.64642 10.0503C3.17761 10.5191 2.41753 10.5191 1.94872 10.0503C1.47992 9.58152 1.47992 8.82143 1.94872 8.35263L4.50227 5.8011C4.9707 5.33325 5.72954 5.33325 6.19798 5.8011C6.51367 6.09821 7.0061 6.09821 7.32177 5.8011C7.45759 5.66516 7.53993 5.48487 7.55373 5.29318C7.56833 5.06412 7.48385 4.8398 7.32174 4.67731Z" fill="black"/>
<path d="M11.1791 0.820003C10.0858 -0.273324 8.31318 -0.273324 7.21985 0.820003L5.12222 2.91562C5.06462 2.9735 5.048 3.06055 5.08023 3.13559C5.11207 3.21083 5.1865 3.25913 5.26818 3.25756H5.34216C5.78032 3.25676 6.21437 3.34166 6.61993 3.50752C6.6948 3.53833 6.78085 3.52095 6.83789 3.46354L8.34362 1.9598C8.81242 1.49099 9.5725 1.49099 10.0413 1.9598C10.5101 2.4286 10.5101 3.18869 10.0413 3.65749L8.16564 5.53115L8.14964 5.54915L7.49376 6.20104C7.02533 6.66888 6.26649 6.66888 5.79806 6.20104C5.48236 5.90393 4.98994 5.90393 4.67427 6.20104C4.53758 6.338 4.45517 6.51987 4.4423 6.71294C4.42768 6.942 4.51216 7.16632 4.67427 7.32883C4.90572 7.56127 5.17651 7.75082 5.47412 7.88872C5.51611 7.90871 5.5581 7.92472 5.60009 7.94272C5.64209 7.96071 5.68607 7.9747 5.72806 7.99071C5.77005 8.00671 5.81404 8.0207 5.85603 8.0327L5.97402 8.06468C6.054 8.08467 6.134 8.10068 6.21597 8.11467C6.31471 8.12934 6.41417 8.13869 6.51392 8.14267H6.65389H6.66589L6.78586 8.12868C6.82985 8.12669 6.87585 8.11668 6.92785 8.11668H6.99583L7.1338 8.09669L7.1978 8.0847L7.31377 8.0607H7.33577C7.82696 7.93733 8.27547 7.683 8.63353 7.32483L11.1791 4.77929C12.2725 3.68596 12.2725 1.91333 11.1791 0.820003Z" fill="black"/>
</svg>
