<svg width="29" height="31" viewBox="0 0 29 31" fill="none" xmlns="http://www.w3.org/2000/svg">
<g opacity="0.8">
<g clip-path="url(#clip0)">
<path d="M6.38359 18.2143H10.5946V10.6016L16.8766 0H11.9682L8.56646 6.23932L5.09375 0H0.123474L6.38359 10.5776V18.2143Z" fill="white"/>
</g>
<g clip-path="url(#clip1)">
<path d="M23.174 30.566C26.0014 29.3971 27.5587 26.0372 27.5587 21.1768C27.5587 15.9648 26.0014 12.4624 23.1731 11.3867C21.5922 10.7931 19.4444 11.0815 14.4413 11.0036V30.992C19.6067 30.9026 21.5193 31.2411 23.174 30.566V30.566ZM18.3117 26.6635V15.3447C18.6407 15.3548 20.7271 15.2954 21.4676 15.5094C22.9746 15.9315 23.589 17.5529 23.589 21.0104C23.589 23.9166 23.266 25.995 21.6908 26.5028C20.9585 26.7426 19.2984 26.6364 18.3117 26.6635Z" fill="white"/>
</g>
</g>
<defs>
<clipPath id="clip0">
<rect width="17" height="18.2143" fill="white"/>
</clipPath>
<clipPath id="clip1">
<rect width="16" height="20" fill="white" transform="translate(13 11)"/>
</clipPath>
</defs>
</svg>
