<svg width="15" height="15" viewBox="0 0 15 15" fill="none" xmlns="http://www.w3.org/2000/svg">
<path d="M10.0177 1.71645C7.72944 -0.571823 4.00511 -0.571823 1.71684 1.71645C-0.570936 4.00521 -0.570936 7.72905 1.71684 10.0178C3.7546 12.0551 6.92832 12.2733 9.2151 10.6825C9.26322 10.9102 9.37334 11.1275 9.55043 11.3046L12.8829 14.637C13.3685 15.1217 14.1533 15.1217 14.6364 14.637C15.1215 14.1519 15.1215 13.3671 14.6364 12.8835L11.304 9.55004C11.1279 9.37444 10.9101 9.26382 10.6824 9.2157C12.2742 6.92842 12.056 3.7552 10.0177 1.71645ZM8.96559 8.96569C7.2572 10.6741 4.47685 10.6741 2.76896 8.96569C1.06156 7.2573 1.06156 4.47745 2.76896 2.76906C4.47685 1.06117 7.2572 1.06117 8.96559 2.76906C10.674 4.47745 10.674 7.2573 8.96559 8.96569Z" fill="black"/>
</svg>
