<svg width="17" height="17" viewBox="0 0 17 17" fill="none" xmlns="http://www.w3.org/2000/svg">
<path d="M14.0117 8.00195V8.5C14.0117 11.5181 11.5182 14.0117 8.5 14.0117C5.4818 14.0117 2.98828 11.5181 2.98828 8.5C2.98828 5.4818 5.4818 2.98828 8.5 2.98828C9.56582 2.98828 10.635 3.29707 11.5115 3.8748L10.5553 4.56204L16.1035 7.36445L15.4062 1.0957L14.0615 2.05195C13.7926 1.82282 13.5037 1.60371 13.2049 1.40446C11.8203 0.488086 10.1734 0 8.5 0C3.82832 0 0 3.82832 0 8.5C0 13.1717 3.82832 17 8.5 17C13.1717 17 17 13.1717 17 8.5V8.00195H14.0117Z" fill="#9DCFFF"/>
<path d="M11.5115 3.8748C10.635 3.29707 9.56582 2.98828 8.5 2.98828V0C10.1734 0 11.8203 0.488086 13.2049 1.40446C13.5037 1.60368 13.7926 1.82279 14.0615 2.05195L15.4063 1.09567L16.1035 7.36442L10.5553 4.56204L11.5115 3.8748Z" fill="#3BA9FF"/>
<path d="M17 8.00195V8.5C17 13.1717 13.1717 17 8.5 17V14.0117C11.5182 14.0117 14.0117 11.5181 14.0117 8.5V8.00195H17Z" fill="#3BA9FF"/>
</svg>
