<svg width="9" height="13" viewBox="0 0 9 13" fill="none" xmlns="http://www.w3.org/2000/svg">
<path d="M6.70764 0H2.31586C1.56922 0 0.934814 0.608796 0.934814 1.35523V11.6463C0.934814 12.3928 1.55579 13 2.30244 13L6.70144 12.9953C7.44798 12.9953 8.05874 12.3879 8.05874 11.6414L8.06514 1.35451C8.06504 0.605388 7.45727 0 6.70764 0ZM3.87729 0.812519H5.15147C5.2634 0.812519 5.35457 0.903384 5.35457 1.01562C5.35457 1.12786 5.2634 1.21873 5.15147 1.21873H3.87729C3.76505 1.21873 3.67419 1.12786 3.67419 1.01562C3.67419 0.903384 3.76505 0.812519 3.87729 0.812519ZM3.11165 0.877157C3.18693 0.801987 3.32395 0.800955 3.39912 0.877157C3.4368 0.914743 3.45911 0.967506 3.45911 1.02141C3.45911 1.07427 3.4368 1.12693 3.39912 1.16462C3.36163 1.20231 3.30866 1.22451 3.2559 1.22451C3.2021 1.22451 3.15037 1.20231 3.11165 1.16462C3.07417 1.12704 3.0528 1.07427 3.0528 1.02141C3.05269 0.967506 3.07417 0.914743 3.11165 0.877157ZM4.47339 12.5974C4.13822 12.5974 3.86563 12.3246 3.86563 11.9895C3.86563 11.6544 4.13822 11.3817 4.47339 11.3817C4.80856 11.3817 5.08115 11.6544 5.08115 11.9895C5.08115 12.3246 4.80845 12.5974 4.47339 12.5974ZM7.43466 10.9685H1.64573V1.92975H7.43466V10.9685Z" fill="black"/>
</svg>
