<svg width="13" height="13" viewBox="0 0 13 13" fill="none" xmlns="http://www.w3.org/2000/svg">
<path d="M12.9778 7.26804C12.7479 4.94759 10.6598 3.25031 8.32795 3.25031H4.8749V1.21911C4.8749 1.06311 4.78552 0.920928 4.64496 0.852679C4.50359 0.785243 4.33703 0.803118 4.21516 0.901428L0.152747 4.15136C0.0560613 4.22936 0 4.34554 0 4.46904C0 4.59254 0.0560613 4.70872 0.151934 4.78672L4.21435 8.03665C4.28828 8.09515 4.37847 8.12521 4.46865 8.12521C4.52878 8.12521 4.5889 8.11221 4.64496 8.0854C4.78552 8.01715 4.8749 7.87497 4.8749 7.71897V5.68776H8.41407C9.4768 5.68776 10.4453 6.4515 10.5517 7.50854C10.6744 8.72401 9.72135 9.75018 8.53107 9.75018H5.28114C5.05689 9.75018 4.8749 9.93217 4.8749 10.1564V11.7814C4.8749 12.0056 5.05689 12.1876 5.28114 12.1876H8.53107C11.1416 12.1876 13.2402 9.93136 12.9778 7.26804Z" fill="white"/>
</svg>
